<?xml version="1.0" standalone="no"?>
<!DOCTYPE svg PUBLIC "-//W3C//DTD SVG 20010904//EN"
 "http://www.w3.org/TR/2001/REC-SVG-20010904/DTD/svg10.dtd">
<svg version="1.0" xmlns="http://www.w3.org/2000/svg"
 width="260.000000pt" height="260.000000pt" viewBox="0 0 260.000000 260.000000"
 preserveAspectRatio="xMidYMid meet">
<metadata>
Created by potrace 1.14, written by Peter Selinger 2001-2017
</metadata>
<g transform="translate(0.000000,260.000000) scale(0.100000,-0.100000)"
fill="#000000" stroke="none">
<path d="M870 2436 c-169 -74 -251 -127 -359 -230 -143 -138 -224 -283 -278
-496 -12 -47 -17 -118 -18 -255 -2 -165 -5 -197 -23 -245 -38 -100 -52 -196
-47 -320 4 -136 27 -224 89 -355 38 -80 128 -215 144 -215 3 0 13 7 23 16 17
15 16 18 -17 61 -49 64 -119 214 -145 308 -41 155 -31 365 27 515 14 36 17 82
19 225 2 198 15 284 66 415 93 241 296 448 545 557 35 15 64 33 64 40 0 18 -5
17 -90 -21z"/>
<path d="M1063 2455 l-32 -13 14 -54 c8 -29 42 -107 76 -173 74 -144 104 -222
114 -292 7 -52 7 -53 41 -53 32 0 34 2 34 33 0 57 -29 136 -111 301 -50 101
-81 177 -85 208 -4 27 -9 50 -13 52 -3 2 -20 -2 -38 -9z"/>
<path d="M2120 2254 c-237 -37 -443 -144 -605 -315 -63 -67 -69 -71 -101 -66
-19 3 -32 2 -30 -2 3 -5 31 -11 61 -15 l56 -6 97 98 c169 173 334 260 563 297
50 8 94 17 97 20 8 8 -34 4 -138 -11z"/>
<path d="M2348 2262 c-21 -2 -30 -13 -48 -55 -29 -67 -29 -130 4 -331 30 -182
33 -278 9 -361 -23 -82 -21 -96 20 -207 93 -250 105 -520 31 -717 -30 -78 -64
-141 -111 -199 -29 -35 -33 -45 -23 -57 19 -23 32 -18 73 27 127 143 198 369
183 579 -11 142 -54 322 -106 444 -19 44 -19 45 1 102 14 40 20 85 21 143 0
79 -8 186 -16 199 -2 3 -7 28 -10 54 -4 26 -11 71 -16 99 -18 91 -12 168 15
226 14 30 25 55 25 56 0 3 -16 2 -52 -2z"/>
<path d="M850 2164 c-178 -119 -295 -279 -345 -474 -21 -79 -27 -259 -13 -357
10 -68 9 -75 -16 -136 -47 -110 -64 -193 -61 -292 4 -117 21 -188 67 -279 17
-33 23 -37 46 -32 66 15 175 18 234 7 83 -16 186 -66 278 -136 93 -71 133 -91
209 -109 90 -21 171 -11 254 30 71 35 121 79 188 166 92 119 195 187 304 201
40 5 40 5 15 -11 -14 -9 -54 -45 -90 -79 l-65 -62 82 0 c70 0 111 -6 184 -27
23 -6 65 92 82 192 31 178 -5 366 -114 603 l-30 65 25 55 c33 76 46 127 46
186 1 68 -52 345 -65 345 -20 0 -158 -71 -199 -102 -47 -35 -163 -154 -177
-180 -7 -14 -1 -23 34 -46 57 -40 187 -177 187 -199 0 -1 -30 15 -66 38 -253
154 -542 196 -844 122 -69 -17 -186 -60 -251 -94 l-40 -20 17 26 c35 54 140
137 227 178 l87 42 -5 74 c-6 76 -32 149 -98 278 l-32 63 -55 -36z m1150 -813
c46 -122 33 -213 -45 -299 -103 -114 -281 -130 -415 -37 -53 37 -124 115 -114
124 5 5 29 16 54 25 89 35 423 250 446 287 11 18 50 -35 74 -100z m-1214 37
c136 -85 347 -192 436 -219 40 -13 77 -26 82 -30 14 -12 -37 -90 -92 -141 -27
-25 -72 -58 -100 -72 -44 -22 -70 -30 -146 -40 -71 -10 -200 40 -259 100 -111
111 -124 254 -41 427 10 20 19 37 20 37 1 0 46 -28 100 -62z m384 -637 c36
-68 64 -86 122 -82 9 0 38 19 64 42 49 43 63 45 146 24 23 -6 33 -1 68 35 24
25 45 39 51 33 30 -30 1 -116 -51 -146 -29 -18 -81 -21 -115 -8 -14 6 -27 0
-51 -24 -21 -21 -50 -37 -81 -44 -106 -25 -192 25 -214 126 -12 54 -3 103 20
103 5 0 24 -26 41 -59z"/>
<path d="M556 390 c-62 -24 -68 -31 -51 -53 13 -17 15 -17 55 12 68 49 98 55
161 31 30 -11 86 -44 124 -73 135 -102 227 -143 344 -152 l66 -5 -63 14 c-76
18 -150 52 -217 100 -166 120 -223 146 -315 146 -30 -1 -77 -10 -104 -20z"/>
<path d="M1900 401 c-40 -13 -100 -46 -183 -100 -132 -87 -217 -124 -337 -144
-14 -3 -6 -5 19 -6 105 -3 240 49 398 153 56 36 118 73 137 81 32 14 37 13 88
-13 29 -15 63 -34 76 -42 20 -13 24 -13 32 0 12 19 -6 33 -77 60 -55 20 -109
24 -153 11z"/>
</g>
</svg>
